<svg width="21" height="20" viewBox="0 0 21 20" fill="none" xmlns="http://www.w3.org/2000/svg">
<path d="M8.02778 16C8.32246 16 8.60508 15.8946 8.81345 15.7071C9.02183 15.5196 9.13889 15.2652 9.13889 15V9C9.13889 8.73478 9.02183 8.48043 8.81345 8.29289C8.60508 8.10536 8.32246 8 8.02778 8C7.73309 8 7.45048 8.10536 7.2421 8.29289C7.03373 8.48043 6.91667 8.73478 6.91667 9V15C6.91667 15.2652 7.03373 15.5196 7.2421 15.7071C7.45048 15.8946 7.73309 16 8.02778 16ZM19.1389 4H14.6944V3C14.6944 2.20435 14.3433 1.44129 13.7181 0.87868C13.093 0.316071 12.2452 0 11.3611 0H9.13889C8.25483 0 7.40699 0.316071 6.78187 0.87868C6.15674 1.44129 5.80556 2.20435 5.80556 3V4H1.36111C1.06643 4 0.783811 4.10536 0.575437 4.29289C0.367063 4.48043 0.25 4.73478 0.25 5C0.25 5.26522 0.367063 5.51957 0.575437 5.70711C0.783811 5.89464 1.06643 6 1.36111 6H2.47222V17C2.47222 17.7956 2.82341 18.5587 3.44853 19.1213C4.07365 19.6839 4.9215 20 5.80556 20H14.6944C15.5785 20 16.4263 19.6839 17.0515 19.1213C17.6766 18.5587 18.0278 17.7956 18.0278 17V6H19.1389C19.4336 6 19.7162 5.89464 19.9246 5.70711C20.1329 5.51957 20.25 5.26522 20.25 5C20.25 4.73478 20.1329 4.48043 19.9246 4.29289C19.7162 4.10536 19.4336 4 19.1389 4ZM8.02778 3C8.02778 2.73478 8.14484 2.48043 8.35322 2.29289C8.56159 2.10536 8.8442 2 9.13889 2H11.3611C11.6558 2 11.9384 2.10536 12.1468 2.29289C12.3552 2.48043 12.4722 2.73478 12.4722 3V4H8.02778V3ZM15.8056 17C15.8056 17.2652 15.6885 17.5196 15.4801 17.7071C15.2717 17.8946 14.9891 18 14.6944 18H5.80556C5.51087 18 5.22826 17.8946 5.01988 17.7071C4.81151 17.5196 4.69444 17.2652 4.69444 17V6H15.8056V17ZM12.4722 16C12.7669 16 13.0495 15.8946 13.2579 15.7071C13.4663 15.5196 13.5833 15.2652 13.5833 15V9C13.5833 8.73478 13.4663 8.48043 13.2579 8.29289C13.0495 8.10536 12.7669 8 12.4722 8C12.1775 8 11.8949 8.10536 11.6865 8.29289C11.4782 8.48043 11.3611 8.73478 11.3611 9V15C11.3611 15.2652 11.4782 15.5196 11.6865 15.7071C11.8949 15.8946 12.1775 16 12.4722 16Z" fill="#EEEEEE"/>
</svg>
