<svg width="21" height="20" viewBox="0 0 21 20" fill="none" xmlns="http://www.w3.org/2000/svg">
<path d="M19.2445 10.0029C18.9794 10.0029 18.7251 10.1082 18.5376 10.2957C18.3501 10.4832 18.2448 10.7375 18.2448 11.0026V17.0009C18.2448 17.266 18.1395 17.5203 17.952 17.7078C17.7645 17.8953 17.5102 18.0006 17.2451 18.0006H3.24913C2.98399 18.0006 2.72971 17.8953 2.54223 17.7078C2.35475 17.5203 2.24942 17.266 2.24942 17.0009V3.00493C2.24942 2.73979 2.35475 2.48551 2.54223 2.29803C2.72971 2.11054 2.98399 2.00522 3.24913 2.00522H9.24739C9.51253 2.00522 9.76681 1.89989 9.95429 1.71241C10.1418 1.52493 10.2471 1.27065 10.2471 1.00551C10.2471 0.740367 10.1418 0.486087 9.95429 0.298605C9.76681 0.111123 9.51253 0.00579666 9.24739 0.00579666H3.24913C2.45371 0.00579666 1.69087 0.321776 1.12843 0.884222C0.565979 1.44667 0.25 2.20951 0.25 3.00493V17.0009C0.25 17.7963 0.565979 18.5591 1.12843 19.1216C1.69087 19.684 2.45371 20 3.24913 20H17.2451C18.0405 20 18.8033 19.684 19.3658 19.1216C19.9282 18.5591 20.2442 17.7963 20.2442 17.0009V11.0026C20.2442 10.7375 20.1389 10.4832 19.9514 10.2957C19.7639 10.1082 19.5096 10.0029 19.2445 10.0029ZM4.24884 10.7627V15.0014C4.24884 15.2666 4.35417 15.5209 4.54165 15.7084C4.72913 15.8958 4.98341 16.0012 5.24855 16.0012H9.48732C9.61889 16.0019 9.74931 15.9767 9.87112 15.927C9.99292 15.8772 10.1037 15.8039 10.1971 15.7112L17.1151 8.78325L19.9543 6.00406C20.048 5.91112 20.1224 5.80055 20.1731 5.67873C20.2239 5.5569 20.25 5.42624 20.25 5.29426C20.25 5.16229 20.2239 5.03162 20.1731 4.9098C20.1224 4.78797 20.048 4.6774 19.9543 4.58447L15.7155 0.295713C15.6226 0.202011 15.512 0.127639 15.3902 0.0768846C15.2684 0.0261307 15.1377 0 15.0057 0C14.8737 0 14.7431 0.0261307 14.6213 0.0768846C14.4994 0.127639 14.3889 0.202011 14.2959 0.295713L11.4767 3.12489L4.53876 10.0529C4.4461 10.1463 4.3728 10.2571 4.32305 10.3789C4.2733 10.5007 4.24808 10.6311 4.24884 10.7627ZM15.0057 2.4151L17.8349 5.24428L16.4153 6.66387L13.5861 3.83469L15.0057 2.4151ZM6.24826 11.1726L12.1765 5.24428L15.0057 8.07346L9.07744 14.0017H6.24826V11.1726Z" fill="#E4E4E4"/>
</svg>
