<svg width="21" height="20" viewBox="0 0 21 20" fill="none" xmlns="http://www.w3.org/2000/svg">
<path d="M17.75 0H5.25C3.92392 0 2.65215 0.421427 1.71447 1.17157C0.776784 1.92172 0.25 2.93913 0.25 4V16C0.25 17.0609 0.776784 18.0783 1.71447 18.8284C2.65215 19.5786 3.92392 20 5.25 20H17.75C18.413 20 19.0489 19.7893 19.5178 19.4142C19.9866 19.0391 20.25 18.5304 20.25 18V2C20.25 1.46957 19.9866 0.960859 19.5178 0.585786C19.0489 0.210714 18.413 0 17.75 0ZM2.75 4C2.75 3.46957 3.01339 2.96086 3.48223 2.58579C3.95107 2.21071 4.58696 2 5.25 2H17.75V12H5.25C4.3688 12.003 3.50499 12.1964 2.75 12.56V4ZM5.25 18C4.58696 18 3.95107 17.7893 3.48223 17.4142C3.01339 17.0391 2.75 16.5304 2.75 16C2.75 15.4696 3.01339 14.9609 3.48223 14.5858C3.95107 14.2107 4.58696 14 5.25 14H17.75V18H5.25ZM7.75 6H12.75C13.0815 6 13.3995 5.89464 13.6339 5.70711C13.8683 5.51957 14 5.26522 14 5C14 4.73478 13.8683 4.48043 13.6339 4.29289C13.3995 4.10536 13.0815 4 12.75 4H7.75C7.41848 4 7.10054 4.10536 6.86612 4.29289C6.6317 4.48043 6.5 4.73478 6.5 5C6.5 5.26522 6.6317 5.51957 6.86612 5.70711C7.10054 5.89464 7.41848 6 7.75 6Z" fill="#EEEEEE"/>
</svg>
