<svg width="52" height="42" viewBox="0 0 52 42" fill="none" xmlns="http://www.w3.org/2000/svg">
<path d="M43.5627 2.06254L43.4377 2.20004L21.7314 29.8563L8.65016 16.7688C7.76157 15.9408 6.58628 15.49 5.3719 15.5115C4.15752 15.5329 2.99886 16.0248 2.14003 16.8837C1.28119 17.7425 0.789246 18.9011 0.76782 20.1155C0.746394 21.3299 1.19716 22.5052 2.02516 23.3938L18.5627 39.9375C19.0082 40.3822 19.5387 40.7327 20.1226 40.9679C20.7064 41.2031 21.3317 41.3183 21.9611 41.3067C22.5904 41.295 23.211 41.1567 23.7858 40.9C24.3605 40.6433 24.8777 40.2735 25.3064 39.8125L50.2564 8.62504C51.106 7.73336 51.5705 6.54315 51.5495 5.31172C51.5285 4.08029 51.0237 2.9066 50.1443 2.04438C49.2648 1.18217 48.0813 0.700721 46.8497 0.704119C45.6181 0.707517 44.4374 1.19549 43.5627 2.06254Z" fill="#2CA141"/>
</svg>
