<svg width="21" height="20" viewBox="0 0 21 20" fill="none" xmlns="http://www.w3.org/2000/svg">
<path d="M10.75 0C8.18638 0.00731219 5.72349 0.998914 3.87 2.77V1C3.87 0.734783 3.76464 0.480429 3.57711 0.292893C3.38957 0.105357 3.13522 0 2.87 0C2.60478 0 2.35043 0.105357 2.16289 0.292893C1.97536 0.480429 1.87 0.734783 1.87 1V5.5C1.87 5.76521 1.97536 6.01957 2.16289 6.2071C2.35043 6.39464 2.60478 6.5 2.87 6.5H7.37C7.63521 6.5 7.88957 6.39464 8.0771 6.2071C8.26464 6.01957 8.37 5.76521 8.37 5.5C8.37 5.23478 8.26464 4.98043 8.0771 4.79289C7.88957 4.60536 7.63521 4.5 7.37 4.5H4.97C6.25578 3.15636 7.9695 2.30265 9.81653 2.08567C11.6636 1.86868 13.5285 2.30197 15.0907 3.31104C16.6528 4.32011 17.8146 5.84191 18.3763 7.61479C18.938 9.38767 18.8645 11.3008 18.1684 13.0254C17.4723 14.7499 16.1972 16.1781 14.5622 17.0643C12.9272 17.9505 11.0345 18.2394 9.20955 17.8813C7.38462 17.5232 5.74146 16.5405 4.56259 15.1022C3.38372 13.6638 2.74279 11.8597 2.75 10C2.75 9.73478 2.64464 9.48043 2.45711 9.29289C2.26957 9.10535 2.01522 9 1.75 9C1.48478 9 1.23043 9.10535 1.04289 9.29289C0.855357 9.48043 0.75 9.73478 0.75 10C0.75 11.9778 1.33649 13.9112 2.4353 15.5557C3.53412 17.2002 5.0959 18.4819 6.92316 19.2388C8.75042 19.9957 10.7611 20.1937 12.7009 19.8078C14.6407 19.422 16.4225 18.4696 17.8211 17.0711C19.2196 15.6725 20.172 13.8907 20.5578 11.9509C20.9437 10.0111 20.7457 8.00042 19.9888 6.17316C19.2319 4.3459 17.9502 2.78412 16.3057 1.6853C14.6612 0.58649 12.7278 0 10.75 0ZM10.75 6C10.4848 6 10.2304 6.10536 10.0429 6.29289C9.85535 6.48043 9.75 6.73478 9.75 7V10C9.75 10.2652 9.85535 10.5196 10.0429 10.7071C10.2304 10.8946 10.4848 11 10.75 11H12.75C13.0152 11 13.2696 10.8946 13.4571 10.7071C13.6446 10.5196 13.75 10.2652 13.75 10C13.75 9.73478 13.6446 9.48043 13.4571 9.29289C13.2696 9.10535 13.0152 9 12.75 9H11.75V7C11.75 6.73478 11.6446 6.48043 11.4571 6.29289C11.2696 6.10536 11.0152 6 10.75 6Z" fill="#222831"/>
</svg>
